<?xml version="1.0" encoding="UTF-8"?>
<!-- Created with Inkscape (http://www.inkscape.org/) -->
<svg width="96mm" height="96mm" version="1.1" viewBox="0 0 96 96" xml:space="preserve" xmlns="http://www.w3.org/2000/svg"><path d="m16.844 73.103-2.7104-2.7104v2.5781c0 2.4017-0.0362 2.5781-0.52916 2.5781-0.50522 0-0.52917-0.17639-0.52917-3.8979v-3.8979l5.5562 5.5373v-2.575c0-2.3986 0.0362-2.575 0.52917-2.575 0.50483 0 0.52916 0.17639 0.52916 3.8365 0 2.11-0.0305 3.8364-0.0678 3.8364s-1.2874-1.2197-2.7781-2.7104zm69.466-0.0165-2.5682-2.6971-0.0115 2.5797c-0.0107 2.3995-0.0485 2.5797-0.54066 2.5797-0.50582 0-0.52862-0.17223-0.51669-3.9026l0.0125-3.9026 5.2667 5.5v-2.5516c0-2.3752 0.0366-2.5516 0.52916-2.5516 0.50484 0 0.52917 0.17639 0.52917 3.8365 0 2.11-0.0298 3.8297-0.0661 3.8215-0.0364-8e-3 -1.2218-1.2286-2.6343-2.712zm-79.32-1.2419c0-3.5278 0.0252-3.7042 0.52917-3.7042s0.52917 0.17639 0.52917 3.7042c0 3.5278-0.0252 3.7042-0.52917 3.7042s-0.52917-0.17639-0.52917-3.7042zm24.342 0c0-2.0373 0.0525-3.7042 0.11677-3.7042 0.0642 0 0.85968 1.0738 1.7677 2.3863 0.90799 1.3125 1.729 2.2947 1.8245 2.1828s0.91549-1.2453 1.8222-2.5186 1.7-2.3151 1.7629-2.3151c0.0628 0 0.11426 1.7264 0.11426 3.8365v3.8365h-0.65075c-0.63128 0-0.65306-0.064-0.72761-2.1387l-0.0768-2.1387-1.1336 1.6095c-0.62348 0.88522-1.2188 1.6059-1.3229 1.6016-0.10412-4e-3 -0.69533-0.74436-1.3138-1.6444l-1.1245-1.6365v2.1736c0 1.9972-0.0429 2.1736-0.52916 2.1736-0.50397 0-0.52917-0.17639-0.52917-3.7042zm14.155 3.4108c-2.5174-1.4656-2.8872-4.4477-0.78085-6.2971 1.7689-1.5531 4.7986-0.92315 5.81 1.2081 0.70192 1.4792 0.41746 3.102-0.74805 4.2675-0.79361 0.79361-1.15 0.95063-2.3439 1.0328-0.77725 0.0535-1.645-0.0412-1.9372-0.21123zm3.2675-1.4336c0.90927-0.76511 1.2368-1.8426 0.86064-2.8319-0.72405-1.9044-2.8813-2.4173-4.2808-1.0178-2.3684 2.3684 0.86084 6.0032 3.4202 3.8497zm7.9772-1.4481v-3.175h-0.92604c-0.74965 0-0.92604-0.10079-0.92604-0.52917 0-0.49231 0.17639-0.52916 2.5329-0.52916 2.2694 0 2.5238 0.0482 2.4452 0.46302-0.0613 0.32359-0.38587 0.48775-1.0777 0.54514l-0.98998 0.0821v3.159c0 2.9826-0.0296 3.159-0.52917 3.159-0.49977 0-0.52917-0.17639-0.52917-3.175zm7.6729-0.52917c0-3.5278 0.0252-3.7042 0.52917-3.7042 0.50396 0 0.52916 0.17639 0.52916 3.7042 0 3.5278-0.0252 3.7042-0.52916 3.7042-0.50397 0-0.52917-0.17639-0.52917-3.7042zm8.0698 3.4108c-2.5174-1.4656-2.8872-4.4477-0.78085-6.2971 1.7689-1.5531 4.7986-0.92315 5.81 1.2081 0.70192 1.4792 0.41746 3.102-0.74805 4.2675-0.79361 0.79361-1.15 0.95063-2.3439 1.0328-0.77725 0.0535-1.645-0.0412-1.9372-0.21123zm3.2529-1.4213c1.9098-1.607 0.86236-4.6354-1.6033-4.6354-0.78431 0-1.2126 0.18379-1.8022 0.7734-2.3577 2.3577 0.85855 6.0051 3.4055 3.862zm-22.504-26.694c-2.3882-0.88975-2.8892-2.1262-3.0883-7.6218-0.13278-3.6639-0.21525-4.2351-0.70669-4.8948-0.49947-0.67048-0.73673-0.75488-2.3199-0.82521l-1.7636-0.0783 0.142 12.592 1.2568 0.0806c0.88236 0.0566 1.2568 0.19456 1.2568 0.46302 0 0.32261-0.97201 0.38238-6.2177 0.38238-5.3505 0-6.2177-0.0554-6.2177-0.39687 0-0.29986 0.32338-0.39688 1.3229-0.39688h1.3229v-25.135h-1.3229c-0.99954 0-1.3229-0.097-1.3229-0.39688 0-0.34347 1.0121-0.39687 7.5215-0.39687 10.316 0 12.876 0.4146 14.504 2.3492 1.6937 2.0129 1.707 6.2375 0.0259 8.2354-0.84882 1.0088-1.7808 1.4999-3.5831 1.8883l-1.4023 0.30218 1.3683 0.4476c3.1483 1.0299 3.5466 1.7356 3.8116 6.7533 0.10759 2.0373 0.27524 3.9033 0.37255 4.1467 0.47362 1.1847 1.8506 0.64336 2.2681-0.89158 0.52813-1.942 0.5114-1.9082 0.80071-1.6188 0.18307 0.18307 0.16789 0.68553-0.0473 1.5656-0.46248 1.8913-0.93538 2.6863-1.8978 3.1901-1.1494 0.60182-4.7496 0.75384-6.0834 0.25688zm-4.4251-14.672c1.5721-0.82294 2.1125-2.2774 2.1125-5.685 0-4.3729-0.81967-5.474-4.0749-5.474h-1.4814v5.6444c0 3.1044 0.0794 5.7238 0.17639 5.8208 0.35312 0.35313 2.3686 0.16424 3.2673-0.30621zm23.106 14.745c-3.1728-0.53008-6.0652-2.2114-7.5905-4.4124-2.3416-3.379-2.9148-10.452-1.215-14.996 1.1485-3.0697 3.8077-5.7275 6.8616-6.8581 2.6792-0.99187 7.063-1.0161 10.754-0.0595 1.9774 0.51255 1.8167 0.51303 2.3368-7e-3 0.23561-0.2356 0.48632-0.37043 0.55714-0.2996 0.0708 0.0708 0.20273 1.9305 0.29312 4.1325 0.19291 4.6995-0.0439 5.0592-1.4497 2.2013-2.3456-4.7684-4.9695-6.6838-8.0295-5.8612-2.7082 0.72801-4.0346 3.4797-4.503 9.3418-0.52254 6.5387 0.394 12.174 2.352 14.462 1.1885 1.3885 2.1222 1.8519 3.7318 1.8519 2.3856 0 4.8666-2.2618 6.7314-6.1367 1.3035-2.7085 1.5144-2.4333 1.5097 1.9695-2e-3 2.225-0.11909 3.933-0.28473 4.1672-0.21122 0.29866-0.31388 0.31503-0.41487 0.0661-0.18457-0.45487-0.93595-0.4169-3.9266 0.19844-2.6658 0.54851-5.3627 0.63225-7.7135 0.23951zm-57.771-0.3718c0-0.29398 0.30868-0.39688 1.1906-0.39688h1.1906v-25.135h-1.1906c-0.88195 0-1.1906-0.1029-1.1906-0.39688 0-0.3426 0.94074-0.39687 6.8792-0.39687s6.8792 0.0543 6.8792 0.39687c0 0.3175-0.39688 0.39688-1.9844 0.39688h-1.9844v25.187l1.6536-0.18614c3.4951-0.39342 5.3586-1.85 7.6422-5.9735 1.4776-2.6682 1.9536-2.7532 1.7273-0.30847-0.0909 0.98226-0.24497 3.0063-0.34235 4.4979l-0.17704 2.712h-10.147c-8.8429 0-10.147-0.051-10.147-0.39687z"/></svg>
